<?xml version="1.0" encoding="UTF-8" standalone="no"?>
<!DOCTYPE svg PUBLIC "-//W3C//DTD SVG 1.1//EN"
 "http://www.w3.org/Graphics/SVG/1.1/DTD/svg11.dtd">
<!-- Generated by graphviz version 2.43.0 (0)
 -->
<!-- Title: %3 Pages: 1 -->
<svg width="3076pt" height="326pt"
 viewBox="0.00 0.00 3075.55 325.99" xmlns="http://www.w3.org/2000/svg" xmlns:xlink="http://www.w3.org/1999/xlink">
<g id="graph0" class="graph" transform="scale(1 1) rotate(0) translate(4 321.99)">
<title>%3</title>
<polygon fill="white" stroke="transparent" points="-4,4 -4,-321.99 3071.55,-321.99 3071.55,4 -4,4"/>
<!-- fake -->
<g id="node1" class="node">
<title>fake</title>
</g>
<!-- 0 -->
<g id="node22" class="node">
<title>0</title>
<ellipse fill="none" stroke="black" cx="30.55" cy="-209.5" rx="27" ry="18"/>
<text text-anchor="middle" x="30.55" y="-205.8" font-family="Times,serif" font-size="14.00">0</text>
</g>
<!-- fake&#45;&gt;0 -->
<g id="edge1" class="edge">
<title>fake&#45;&gt;0</title>
<path fill="none" stroke="black" stroke-width="2" d="M30.55,-272.94C30.55,-262.7 30.55,-249.5 30.55,-237.87"/>
<polygon fill="black" stroke="black" stroke-width="2" points="34.05,-237.77 30.55,-227.77 27.05,-237.77 34.05,-237.77"/>
</g>
<!-- 18 -->
<g id="node2" class="node">
<title>18</title>
<ellipse fill="none" stroke="black" cx="105.55" cy="-291.24" rx="22.96" ry="22.96"/>
<ellipse fill="none" stroke="black" cx="105.55" cy="-291.24" rx="27" ry="27"/>
<text text-anchor="middle" x="105.55" y="-287.54" font-family="Times,serif" font-size="14.00">18</text>
</g>
<!-- 18&#45;&gt;18 -->
<g id="edge2" class="edge">
<title>18&#45;&gt;18</title>
<path fill="none" stroke="black" d="M132.64,-292.74C142.36,-292.77 150.3,-292.28 150.3,-291.24 150.3,-290.62 147.35,-290.18 142.85,-289.95"/>
<polygon fill="black" stroke="black" points="142.7,-286.45 132.64,-289.75 142.56,-293.45 142.7,-286.45"/>
<text text-anchor="middle" x="155.3" y="-287.54" font-family="Times,serif" font-size="14.00">d</text>
</g>
<!-- 18&#45;&gt;18 -->
<g id="edge19" class="edge">
<title>18&#45;&gt;18</title>
<path fill="none" stroke="black" d="M132.31,-293.97C150.49,-294.76 168.3,-293.85 168.3,-291.24 168.3,-289.12 156.54,-288.13 142.38,-288.25"/>
<polygon fill="black" stroke="black" points="142.21,-284.76 132.31,-288.52 142.4,-291.76 142.21,-284.76"/>
<text text-anchor="middle" x="172.8" y="-287.54" font-family="Times,serif" font-size="14.00">e</text>
</g>
<!-- 18&#45;&gt;18 -->
<g id="edge30" class="edge">
<title>18&#45;&gt;18</title>
<path fill="none" stroke="black" d="M132.43,-294.85C158.18,-296.78 186.3,-295.58 186.3,-291.24 186.3,-287.47 164.96,-286.07 142.44,-287.05"/>
<polygon fill="black" stroke="black" points="142.21,-283.55 132.43,-287.64 142.62,-290.54 142.21,-283.55"/>
<text text-anchor="middle" x="191.3" y="-287.54" font-family="Times,serif" font-size="14.00">b</text>
</g>
<!-- 18&#45;&gt;18 -->
<g id="edge36" class="edge">
<title>18&#45;&gt;18</title>
<path fill="none" stroke="black" d="M132.09,-295.48C165.11,-298.83 204.3,-297.42 204.3,-291.24 204.3,-285.7 172.67,-284 142.3,-286.14"/>
<polygon fill="black" stroke="black" points="141.76,-282.67 132.09,-287.01 142.35,-289.65 141.76,-282.67"/>
<text text-anchor="middle" x="207.3" y="-287.54" font-family="Times,serif" font-size="14.00">f</text>
</g>
<!-- 18&#45;&gt;18 -->
<g id="edge47" class="edge">
<title>18&#45;&gt;18</title>
<path fill="none" stroke="black" d="M131.93,-295.96C171.9,-300.86 222.3,-299.29 222.3,-291.24 222.3,-283.86 179.83,-281.93 141.95,-285.45"/>
<polygon fill="black" stroke="black" points="141.5,-281.98 131.93,-286.53 142.25,-288.94 141.5,-281.98"/>
<text text-anchor="middle" x="226.3" y="-287.54" font-family="Times,serif" font-size="14.00">c</text>
</g>
<!-- 18&#45;&gt;18 -->
<g id="edge48" class="edge">
<title>18&#45;&gt;18</title>
<path fill="none" stroke="black" d="M132,-296.37C178.69,-302.89 240.3,-301.18 240.3,-291.24 240.3,-282.01 187.05,-279.88 142.05,-284.87"/>
<polygon fill="black" stroke="black" points="141.49,-281.41 132,-286.12 142.36,-288.35 141.49,-281.41"/>
<text text-anchor="middle" x="244.8" y="-287.54" font-family="Times,serif" font-size="14.00">a</text>
</g>
<!-- 15 -->
<g id="node3" class="node">
<title>15</title>
<ellipse fill="none" stroke="black" cx="337.55" cy="-291.24" rx="27" ry="18"/>
<text text-anchor="middle" x="337.55" y="-287.54" font-family="Times,serif" font-size="14.00">15</text>
</g>
<!-- 5 -->
<g id="node4" class="node">
<title>5</title>
<ellipse fill="none" stroke="black" cx="409.55" cy="-291.24" rx="27" ry="18"/>
<text text-anchor="middle" x="409.55" y="-287.54" font-family="Times,serif" font-size="14.00">5</text>
</g>
<!-- 17 -->
<g id="node5" class="node">
<title>17</title>
<ellipse fill="none" stroke="black" cx="481.55" cy="-291.24" rx="27" ry="18"/>
<text text-anchor="middle" x="481.55" y="-287.54" font-family="Times,serif" font-size="14.00">17</text>
</g>
<!-- 19 -->
<g id="node6" class="node">
<title>19</title>
<ellipse fill="none" stroke="black" cx="553.55" cy="-291.24" rx="22.96" ry="22.96"/>
<ellipse fill="none" stroke="black" cx="553.55" cy="-291.24" rx="27" ry="27"/>
<text text-anchor="middle" x="553.55" y="-287.54" font-family="Times,serif" font-size="14.00">19</text>
</g>
<!-- 19&#45;&gt;19 -->
<g id="edge3" class="edge">
<title>19&#45;&gt;19</title>
<path fill="none" stroke="black" d="M580.64,-292.74C590.36,-292.77 598.3,-292.28 598.3,-291.24 598.3,-290.62 595.35,-290.18 590.85,-289.95"/>
<polygon fill="black" stroke="black" points="590.7,-286.45 580.64,-289.75 590.56,-293.45 590.7,-286.45"/>
<text text-anchor="middle" x="602.3" y="-287.54" font-family="Times,serif" font-size="14.00">c</text>
</g>
<!-- 19&#45;&gt;19 -->
<g id="edge4" class="edge">
<title>19&#45;&gt;19</title>
<path fill="none" stroke="black" d="M580.31,-293.97C598.49,-294.76 616.3,-293.85 616.3,-291.24 616.3,-289.12 604.54,-288.13 590.38,-288.25"/>
<polygon fill="black" stroke="black" points="590.21,-284.76 580.31,-288.52 590.4,-291.76 590.21,-284.76"/>
<text text-anchor="middle" x="620.8" y="-287.54" font-family="Times,serif" font-size="14.00">a</text>
</g>
<!-- 19&#45;&gt;19 -->
<g id="edge28" class="edge">
<title>19&#45;&gt;19</title>
<path fill="none" stroke="black" d="M580.43,-294.85C606.18,-296.78 634.3,-295.58 634.3,-291.24 634.3,-287.47 612.96,-286.07 590.44,-287.05"/>
<polygon fill="black" stroke="black" points="590.21,-283.55 580.43,-287.64 590.62,-290.54 590.21,-283.55"/>
<text text-anchor="middle" x="639.3" y="-287.54" font-family="Times,serif" font-size="14.00">d</text>
</g>
<!-- 19&#45;&gt;19 -->
<g id="edge49" class="edge">
<title>19&#45;&gt;19</title>
<path fill="none" stroke="black" d="M580.09,-295.48C613.11,-298.83 652.3,-297.42 652.3,-291.24 652.3,-285.7 620.67,-284 590.3,-286.14"/>
<polygon fill="black" stroke="black" points="589.76,-282.67 580.09,-287.01 590.35,-289.65 589.76,-282.67"/>
<text text-anchor="middle" x="656.8" y="-287.54" font-family="Times,serif" font-size="14.00">e</text>
</g>
<!-- 19&#45;&gt;19 -->
<g id="edge55" class="edge">
<title>19&#45;&gt;19</title>
<path fill="none" stroke="black" d="M579.93,-295.96C619.9,-300.86 670.3,-299.29 670.3,-291.24 670.3,-283.86 627.83,-281.93 589.95,-285.45"/>
<polygon fill="black" stroke="black" points="589.5,-281.98 579.93,-286.53 590.25,-288.94 589.5,-281.98"/>
<text text-anchor="middle" x="675.3" y="-287.54" font-family="Times,serif" font-size="14.00">b</text>
</g>
<!-- 19&#45;&gt;19 -->
<g id="edge61" class="edge">
<title>19&#45;&gt;19</title>
<path fill="none" stroke="black" d="M580,-296.37C626.69,-302.89 688.3,-301.18 688.3,-291.24 688.3,-282.01 635.05,-279.88 590.05,-284.87"/>
<polygon fill="black" stroke="black" points="589.49,-281.41 580,-286.12 590.36,-288.35 589.49,-281.41"/>
<text text-anchor="middle" x="691.3" y="-287.54" font-family="Times,serif" font-size="14.00">f</text>
</g>
<!-- 22 -->
<g id="node7" class="node">
<title>22</title>
<ellipse fill="none" stroke="black" cx="784.55" cy="-291.24" rx="22.96" ry="22.96"/>
<ellipse fill="none" stroke="black" cx="784.55" cy="-291.24" rx="27" ry="27"/>
<text text-anchor="middle" x="784.55" y="-287.54" font-family="Times,serif" font-size="14.00">22</text>
</g>
<!-- 22&#45;&gt;22 -->
<g id="edge12" class="edge">
<title>22&#45;&gt;22</title>
<path fill="none" stroke="black" d="M811.64,-292.74C821.36,-292.77 829.3,-292.28 829.3,-291.24 829.3,-290.62 826.35,-290.18 821.85,-289.95"/>
<polygon fill="black" stroke="black" points="821.7,-286.45 811.64,-289.75 821.56,-293.45 821.7,-286.45"/>
<text text-anchor="middle" x="833.8" y="-287.54" font-family="Times,serif" font-size="14.00">e</text>
</g>
<!-- 22&#45;&gt;22 -->
<g id="edge14" class="edge">
<title>22&#45;&gt;22</title>
<path fill="none" stroke="black" d="M811.31,-293.97C829.49,-294.76 847.3,-293.85 847.3,-291.24 847.3,-289.12 835.54,-288.13 821.38,-288.25"/>
<polygon fill="black" stroke="black" points="821.21,-284.76 811.31,-288.52 821.4,-291.76 821.21,-284.76"/>
<text text-anchor="middle" x="852.3" y="-287.54" font-family="Times,serif" font-size="14.00">b</text>
</g>
<!-- 22&#45;&gt;22 -->
<g id="edge18" class="edge">
<title>22&#45;&gt;22</title>
<path fill="none" stroke="black" d="M811.43,-294.85C837.18,-296.78 865.3,-295.58 865.3,-291.24 865.3,-287.47 843.96,-286.07 821.44,-287.05"/>
<polygon fill="black" stroke="black" points="821.21,-283.55 811.43,-287.64 821.62,-290.54 821.21,-283.55"/>
<text text-anchor="middle" x="868.3" y="-287.54" font-family="Times,serif" font-size="14.00">f</text>
</g>
<!-- 22&#45;&gt;22 -->
<g id="edge29" class="edge">
<title>22&#45;&gt;22</title>
<path fill="none" stroke="black" d="M811.09,-295.48C844.11,-298.83 883.3,-297.42 883.3,-291.24 883.3,-285.7 851.67,-284 821.3,-286.14"/>
<polygon fill="black" stroke="black" points="820.76,-282.67 811.09,-287.01 821.35,-289.65 820.76,-282.67"/>
<text text-anchor="middle" x="887.3" y="-287.54" font-family="Times,serif" font-size="14.00">c</text>
</g>
<!-- 22&#45;&gt;22 -->
<g id="edge31" class="edge">
<title>22&#45;&gt;22</title>
<path fill="none" stroke="black" d="M810.93,-295.96C850.9,-300.86 901.3,-299.29 901.3,-291.24 901.3,-283.86 858.83,-281.93 820.95,-285.45"/>
<polygon fill="black" stroke="black" points="820.5,-281.98 810.93,-286.53 821.25,-288.94 820.5,-281.98"/>
<text text-anchor="middle" x="905.8" y="-287.54" font-family="Times,serif" font-size="14.00">a</text>
</g>
<!-- 22&#45;&gt;22 -->
<g id="edge54" class="edge">
<title>22&#45;&gt;22</title>
<path fill="none" stroke="black" d="M811,-296.37C857.69,-302.89 919.3,-301.18 919.3,-291.24 919.3,-282.01 866.05,-279.88 821.05,-284.87"/>
<polygon fill="black" stroke="black" points="820.49,-281.41 811,-286.12 821.36,-288.35 820.49,-281.41"/>
<text text-anchor="middle" x="924.3" y="-287.54" font-family="Times,serif" font-size="14.00">d</text>
</g>
<!-- 4 -->
<g id="node8" class="node">
<title>4</title>
<ellipse fill="none" stroke="black" cx="1016.55" cy="-291.24" rx="27" ry="18"/>
<text text-anchor="middle" x="1016.55" y="-287.54" font-family="Times,serif" font-size="14.00">4</text>
</g>
<!-- 8 -->
<g id="node9" class="node">
<title>8</title>
<ellipse fill="none" stroke="black" cx="1088.55" cy="-291.24" rx="27" ry="18"/>
<text text-anchor="middle" x="1088.55" y="-287.54" font-family="Times,serif" font-size="14.00">8</text>
</g>
<!-- 14 -->
<g id="node10" class="node">
<title>14</title>
<ellipse fill="none" stroke="black" cx="1160.55" cy="-291.24" rx="27" ry="18"/>
<text text-anchor="middle" x="1160.55" y="-287.54" font-family="Times,serif" font-size="14.00">14</text>
</g>
<!-- 7 -->
<g id="node11" class="node">
<title>7</title>
<ellipse fill="none" stroke="black" cx="1232.55" cy="-291.24" rx="27" ry="18"/>
<text text-anchor="middle" x="1232.55" y="-287.54" font-family="Times,serif" font-size="14.00">7</text>
</g>
<!-- 12 -->
<g id="node12" class="node">
<title>12</title>
<ellipse fill="none" stroke="black" cx="1304.55" cy="-291.24" rx="27" ry="18"/>
<text text-anchor="middle" x="1304.55" y="-287.54" font-family="Times,serif" font-size="14.00">12</text>
</g>
<!-- 20 -->
<g id="node13" class="node">
<title>20</title>
<ellipse fill="none" stroke="black" cx="1376.55" cy="-291.24" rx="22.96" ry="22.96"/>
<ellipse fill="none" stroke="black" cx="1376.55" cy="-291.24" rx="27" ry="27"/>
<text text-anchor="middle" x="1376.55" y="-287.54" font-family="Times,serif" font-size="14.00">20</text>
</g>
<!-- 20&#45;&gt;20 -->
<g id="edge7" class="edge">
<title>20&#45;&gt;20</title>
<path fill="none" stroke="black" d="M1403.64,-292.74C1413.36,-292.77 1421.3,-292.28 1421.3,-291.24 1421.3,-290.62 1418.35,-290.18 1413.85,-289.95"/>
<polygon fill="black" stroke="black" points="1413.7,-286.45 1403.64,-289.75 1413.56,-293.45 1413.7,-286.45"/>
<text text-anchor="middle" x="1425.8" y="-287.54" font-family="Times,serif" font-size="14.00">a</text>
</g>
<!-- 20&#45;&gt;20 -->
<g id="edge20" class="edge">
<title>20&#45;&gt;20</title>
<path fill="none" stroke="black" d="M1403.31,-293.97C1421.49,-294.76 1439.3,-293.85 1439.3,-291.24 1439.3,-289.12 1427.54,-288.13 1413.38,-288.25"/>
<polygon fill="black" stroke="black" points="1413.21,-284.76 1403.31,-288.52 1413.4,-291.76 1413.21,-284.76"/>
<text text-anchor="middle" x="1444.3" y="-287.54" font-family="Times,serif" font-size="14.00">d</text>
</g>
<!-- 20&#45;&gt;20 -->
<g id="edge44" class="edge">
<title>20&#45;&gt;20</title>
<path fill="none" stroke="black" d="M1403.43,-294.85C1429.18,-296.78 1457.3,-295.58 1457.3,-291.24 1457.3,-287.47 1435.96,-286.07 1413.44,-287.05"/>
<polygon fill="black" stroke="black" points="1413.21,-283.55 1403.43,-287.64 1413.62,-290.54 1413.21,-283.55"/>
<text text-anchor="middle" x="1461.8" y="-287.54" font-family="Times,serif" font-size="14.00">e</text>
</g>
<!-- 20&#45;&gt;20 -->
<g id="edge50" class="edge">
<title>20&#45;&gt;20</title>
<path fill="none" stroke="black" d="M1403.09,-295.48C1436.11,-298.83 1475.3,-297.42 1475.3,-291.24 1475.3,-285.7 1443.67,-284 1413.3,-286.14"/>
<polygon fill="black" stroke="black" points="1412.76,-282.67 1403.09,-287.01 1413.35,-289.65 1412.76,-282.67"/>
<text text-anchor="middle" x="1480.3" y="-287.54" font-family="Times,serif" font-size="14.00">b</text>
</g>
<!-- 20&#45;&gt;20 -->
<g id="edge56" class="edge">
<title>20&#45;&gt;20</title>
<path fill="none" stroke="black" d="M1402.93,-295.96C1442.9,-300.86 1493.3,-299.29 1493.3,-291.24 1493.3,-283.86 1450.83,-281.93 1412.95,-285.45"/>
<polygon fill="black" stroke="black" points="1412.5,-281.98 1402.93,-286.53 1413.25,-288.94 1412.5,-281.98"/>
<text text-anchor="middle" x="1496.3" y="-287.54" font-family="Times,serif" font-size="14.00">f</text>
</g>
<!-- 20&#45;&gt;20 -->
<g id="edge62" class="edge">
<title>20&#45;&gt;20</title>
<path fill="none" stroke="black" d="M1403,-296.37C1449.69,-302.89 1511.3,-301.18 1511.3,-291.24 1511.3,-282.01 1458.05,-279.88 1413.05,-284.87"/>
<polygon fill="black" stroke="black" points="1412.49,-281.41 1403,-286.12 1413.36,-288.35 1412.49,-281.41"/>
<text text-anchor="middle" x="1515.3" y="-287.54" font-family="Times,serif" font-size="14.00">c</text>
</g>
<!-- 3 -->
<g id="node14" class="node">
<title>3</title>
<ellipse fill="none" stroke="black" cx="1608.55" cy="-291.24" rx="27" ry="18"/>
<text text-anchor="middle" x="1608.55" y="-287.54" font-family="Times,serif" font-size="14.00">3</text>
</g>
<!-- 21 -->
<g id="node15" class="node">
<title>21</title>
<ellipse fill="none" stroke="black" cx="1680.55" cy="-291.24" rx="22.96" ry="22.96"/>
<ellipse fill="none" stroke="black" cx="1680.55" cy="-291.24" rx="27" ry="27"/>
<text text-anchor="middle" x="1680.55" y="-287.54" font-family="Times,serif" font-size="14.00">21</text>
</g>
<!-- 21&#45;&gt;21 -->
<g id="edge6" class="edge">
<title>21&#45;&gt;21</title>
<path fill="none" stroke="black" d="M1707.64,-292.74C1717.36,-292.77 1725.3,-292.28 1725.3,-291.24 1725.3,-290.62 1722.35,-290.18 1717.85,-289.95"/>
<polygon fill="black" stroke="black" points="1717.7,-286.45 1707.64,-289.75 1717.56,-293.45 1717.7,-286.45"/>
<text text-anchor="middle" x="1730.3" y="-287.54" font-family="Times,serif" font-size="14.00">d</text>
</g>
<!-- 21&#45;&gt;21 -->
<g id="edge27" class="edge">
<title>21&#45;&gt;21</title>
<path fill="none" stroke="black" d="M1707.31,-293.97C1725.49,-294.76 1743.3,-293.85 1743.3,-291.24 1743.3,-289.12 1731.54,-288.13 1717.38,-288.25"/>
<polygon fill="black" stroke="black" points="1717.21,-284.76 1707.31,-288.52 1717.4,-291.76 1717.21,-284.76"/>
<text text-anchor="middle" x="1747.8" y="-287.54" font-family="Times,serif" font-size="14.00">e</text>
</g>
<!-- 21&#45;&gt;21 -->
<g id="edge34" class="edge">
<title>21&#45;&gt;21</title>
<path fill="none" stroke="black" d="M1707.43,-294.85C1733.18,-296.78 1761.3,-295.58 1761.3,-291.24 1761.3,-287.47 1739.96,-286.07 1717.44,-287.05"/>
<polygon fill="black" stroke="black" points="1717.21,-283.55 1707.43,-287.64 1717.62,-290.54 1717.21,-283.55"/>
<text text-anchor="middle" x="1766.3" y="-287.54" font-family="Times,serif" font-size="14.00">b</text>
</g>
<!-- 21&#45;&gt;21 -->
<g id="edge38" class="edge">
<title>21&#45;&gt;21</title>
<path fill="none" stroke="black" d="M1707.09,-295.48C1740.11,-298.83 1779.3,-297.42 1779.3,-291.24 1779.3,-285.7 1747.67,-284 1717.3,-286.14"/>
<polygon fill="black" stroke="black" points="1716.76,-282.67 1707.09,-287.01 1717.35,-289.65 1716.76,-282.67"/>
<text text-anchor="middle" x="1783.3" y="-287.54" font-family="Times,serif" font-size="14.00">c</text>
</g>
<!-- 21&#45;&gt;21 -->
<g id="edge45" class="edge">
<title>21&#45;&gt;21</title>
<path fill="none" stroke="black" d="M1706.93,-295.96C1746.9,-300.86 1797.3,-299.29 1797.3,-291.24 1797.3,-283.86 1754.83,-281.93 1716.95,-285.45"/>
<polygon fill="black" stroke="black" points="1716.5,-281.98 1706.93,-286.53 1717.25,-288.94 1716.5,-281.98"/>
<text text-anchor="middle" x="1800.3" y="-287.54" font-family="Times,serif" font-size="14.00">f</text>
</g>
<!-- 21&#45;&gt;21 -->
<g id="edge52" class="edge">
<title>21&#45;&gt;21</title>
<path fill="none" stroke="black" d="M1707,-296.37C1753.69,-302.89 1815.3,-301.18 1815.3,-291.24 1815.3,-282.01 1762.05,-279.88 1717.05,-284.87"/>
<polygon fill="black" stroke="black" points="1716.49,-281.41 1707,-286.12 1717.36,-288.35 1716.49,-281.41"/>
<text text-anchor="middle" x="1819.8" y="-287.54" font-family="Times,serif" font-size="14.00">a</text>
</g>
<!-- 6 -->
<g id="node16" class="node">
<title>6</title>
<ellipse fill="none" stroke="black" cx="1912.55" cy="-291.24" rx="27" ry="18"/>
<text text-anchor="middle" x="1912.55" y="-287.54" font-family="Times,serif" font-size="14.00">6</text>
</g>
<!-- 24 -->
<g id="node17" class="node">
<title>24</title>
<ellipse fill="none" stroke="black" cx="1984.55" cy="-291.24" rx="22.96" ry="22.96"/>
<ellipse fill="none" stroke="black" cx="1984.55" cy="-291.24" rx="27" ry="27"/>
<text text-anchor="middle" x="1984.55" y="-287.54" font-family="Times,serif" font-size="14.00">24</text>
</g>
<!-- 24&#45;&gt;24 -->
<g id="edge5" class="edge">
<title>24&#45;&gt;24</title>
<path fill="none" stroke="black" d="M2011.64,-292.74C2021.36,-292.77 2029.3,-292.28 2029.3,-291.24 2029.3,-290.62 2026.35,-290.18 2021.85,-289.95"/>
<polygon fill="black" stroke="black" points="2021.7,-286.45 2011.64,-289.75 2021.56,-293.45 2021.7,-286.45"/>
<text text-anchor="middle" x="2034.3" y="-287.54" font-family="Times,serif" font-size="14.00">d</text>
</g>
<!-- 24&#45;&gt;24 -->
<g id="edge16" class="edge">
<title>24&#45;&gt;24</title>
<path fill="none" stroke="black" d="M2011.31,-293.97C2029.49,-294.76 2047.3,-293.85 2047.3,-291.24 2047.3,-289.12 2035.54,-288.13 2021.38,-288.25"/>
<polygon fill="black" stroke="black" points="2021.21,-284.76 2011.31,-288.52 2021.4,-291.76 2021.21,-284.76"/>
<text text-anchor="middle" x="2051.8" y="-287.54" font-family="Times,serif" font-size="14.00">e</text>
</g>
<!-- 24&#45;&gt;24 -->
<g id="edge21" class="edge">
<title>24&#45;&gt;24</title>
<path fill="none" stroke="black" d="M2011.43,-294.85C2037.18,-296.78 2065.3,-295.58 2065.3,-291.24 2065.3,-287.47 2043.96,-286.07 2021.44,-287.05"/>
<polygon fill="black" stroke="black" points="2021.21,-283.55 2011.43,-287.64 2021.62,-290.54 2021.21,-283.55"/>
<text text-anchor="middle" x="2070.3" y="-287.54" font-family="Times,serif" font-size="14.00">b</text>
</g>
<!-- 24&#45;&gt;24 -->
<g id="edge35" class="edge">
<title>24&#45;&gt;24</title>
<path fill="none" stroke="black" d="M2011.09,-295.48C2044.11,-298.83 2083.3,-297.42 2083.3,-291.24 2083.3,-285.7 2051.67,-284 2021.3,-286.14"/>
<polygon fill="black" stroke="black" points="2020.76,-282.67 2011.09,-287.01 2021.35,-289.65 2020.76,-282.67"/>
<text text-anchor="middle" x="2087.3" y="-287.54" font-family="Times,serif" font-size="14.00">c</text>
</g>
<!-- 24&#45;&gt;24 -->
<g id="edge37" class="edge">
<title>24&#45;&gt;24</title>
<path fill="none" stroke="black" d="M2010.93,-295.96C2050.9,-300.86 2101.3,-299.29 2101.3,-291.24 2101.3,-283.86 2058.83,-281.93 2020.95,-285.45"/>
<polygon fill="black" stroke="black" points="2020.5,-281.98 2010.93,-286.53 2021.25,-288.94 2020.5,-281.98"/>
<text text-anchor="middle" x="2105.8" y="-287.54" font-family="Times,serif" font-size="14.00">a</text>
</g>
<!-- 24&#45;&gt;24 -->
<g id="edge43" class="edge">
<title>24&#45;&gt;24</title>
<path fill="none" stroke="black" d="M2011,-296.37C2057.69,-302.89 2119.3,-301.18 2119.3,-291.24 2119.3,-282.01 2066.05,-279.88 2021.05,-284.87"/>
<polygon fill="black" stroke="black" points="2020.49,-281.41 2011,-286.12 2021.36,-288.35 2020.49,-281.41"/>
<text text-anchor="middle" x="2122.3" y="-287.54" font-family="Times,serif" font-size="14.00">f</text>
</g>
<!-- 13 -->
<g id="node18" class="node">
<title>13</title>
<ellipse fill="none" stroke="black" cx="2216.55" cy="-291.24" rx="27" ry="18"/>
<text text-anchor="middle" x="2216.55" y="-287.54" font-family="Times,serif" font-size="14.00">13</text>
</g>
<!-- 23 -->
<g id="node19" class="node">
<title>23</title>
<ellipse fill="none" stroke="black" cx="2288.55" cy="-291.24" rx="22.96" ry="22.96"/>
<ellipse fill="none" stroke="black" cx="2288.55" cy="-291.24" rx="27" ry="27"/>
<text text-anchor="middle" x="2288.55" y="-287.54" font-family="Times,serif" font-size="14.00">23</text>
</g>
<!-- 23&#45;&gt;23 -->
<g id="edge25" class="edge">
<title>23&#45;&gt;23</title>
<path fill="none" stroke="black" d="M2315.64,-292.74C2325.36,-292.77 2333.3,-292.28 2333.3,-291.24 2333.3,-290.62 2330.35,-290.18 2325.85,-289.95"/>
<polygon fill="black" stroke="black" points="2325.7,-286.45 2315.64,-289.75 2325.56,-293.45 2325.7,-286.45"/>
<text text-anchor="middle" x="2338.3" y="-287.54" font-family="Times,serif" font-size="14.00">d</text>
</g>
<!-- 23&#45;&gt;23 -->
<g id="edge39" class="edge">
<title>23&#45;&gt;23</title>
<path fill="none" stroke="black" d="M2315.31,-293.97C2333.49,-294.76 2351.3,-293.85 2351.3,-291.24 2351.3,-289.12 2339.54,-288.13 2325.38,-288.25"/>
<polygon fill="black" stroke="black" points="2325.21,-284.76 2315.31,-288.52 2325.4,-291.76 2325.21,-284.76"/>
<text text-anchor="middle" x="2355.8" y="-287.54" font-family="Times,serif" font-size="14.00">e</text>
</g>
<!-- 23&#45;&gt;23 -->
<g id="edge46" class="edge">
<title>23&#45;&gt;23</title>
<path fill="none" stroke="black" d="M2315.43,-294.85C2341.18,-296.78 2369.3,-295.58 2369.3,-291.24 2369.3,-287.47 2347.96,-286.07 2325.44,-287.05"/>
<polygon fill="black" stroke="black" points="2325.21,-283.55 2315.43,-287.64 2325.62,-290.54 2325.21,-283.55"/>
<text text-anchor="middle" x="2374.3" y="-287.54" font-family="Times,serif" font-size="14.00">b</text>
</g>
<!-- 23&#45;&gt;23 -->
<g id="edge57" class="edge">
<title>23&#45;&gt;23</title>
<path fill="none" stroke="black" d="M2315.09,-295.48C2348.11,-298.83 2387.3,-297.42 2387.3,-291.24 2387.3,-285.7 2355.67,-284 2325.3,-286.14"/>
<polygon fill="black" stroke="black" points="2324.76,-282.67 2315.09,-287.01 2325.35,-289.65 2324.76,-282.67"/>
<text text-anchor="middle" x="2391.3" y="-287.54" font-family="Times,serif" font-size="14.00">c</text>
</g>
<!-- 23&#45;&gt;23 -->
<g id="edge59" class="edge">
<title>23&#45;&gt;23</title>
<path fill="none" stroke="black" d="M2314.93,-295.96C2354.9,-300.86 2405.3,-299.29 2405.3,-291.24 2405.3,-283.86 2362.83,-281.93 2324.95,-285.45"/>
<polygon fill="black" stroke="black" points="2324.5,-281.98 2314.93,-286.53 2325.25,-288.94 2324.5,-281.98"/>
<text text-anchor="middle" x="2409.8" y="-287.54" font-family="Times,serif" font-size="14.00">a</text>
</g>
<!-- 23&#45;&gt;23 -->
<g id="edge60" class="edge">
<title>23&#45;&gt;23</title>
<path fill="none" stroke="black" d="M2315,-296.37C2361.69,-302.89 2423.3,-301.18 2423.3,-291.24 2423.3,-282.01 2370.05,-279.88 2325.05,-284.87"/>
<polygon fill="black" stroke="black" points="2324.49,-281.41 2315,-286.12 2325.36,-288.35 2324.49,-281.41"/>
<text text-anchor="middle" x="2426.3" y="-287.54" font-family="Times,serif" font-size="14.00">f</text>
</g>
<!-- 10 -->
<g id="node20" class="node">
<title>10</title>
<ellipse fill="none" stroke="black" cx="2520.55" cy="-291.24" rx="27" ry="18"/>
<text text-anchor="middle" x="2520.55" y="-287.54" font-family="Times,serif" font-size="14.00">10</text>
</g>
<!-- 16 -->
<g id="node21" class="node">
<title>16</title>
<ellipse fill="none" stroke="black" cx="2592.55" cy="-291.24" rx="27" ry="18"/>
<text text-anchor="middle" x="2592.55" y="-287.54" font-family="Times,serif" font-size="14.00">16</text>
</g>
<!-- 0&#45;&gt;0 -->
<g id="edge8" class="edge">
<title>0&#45;&gt;0</title>
<path fill="none" stroke="black" d="M57.79,-210.99C67.57,-211.03 75.55,-210.53 75.55,-209.5 75.55,-208.87 72.59,-208.44 68.06,-208.2"/>
<polygon fill="black" stroke="black" points="67.86,-204.7 57.79,-208 67.72,-211.7 67.86,-204.7"/>
<text text-anchor="middle" x="79.55" y="-205.8" font-family="Times,serif" font-size="14.00">c</text>
</g>
<!-- 0&#45;&gt;0 -->
<g id="edge10" class="edge">
<title>0&#45;&gt;0</title>
<path fill="none" stroke="black" d="M57.42,-212.22C75.67,-213.01 93.55,-212.11 93.55,-209.5 93.55,-207.38 81.75,-206.38 67.53,-206.51"/>
<polygon fill="black" stroke="black" points="67.32,-203.01 57.42,-206.77 67.51,-210.01 67.32,-203.01"/>
<text text-anchor="middle" x="98.05" y="-205.8" font-family="Times,serif" font-size="14.00">a</text>
</g>
<!-- 0&#45;&gt;0 -->
<g id="edge32" class="edge">
<title>0&#45;&gt;0</title>
<path fill="none" stroke="black" d="M57.1,-213.07C83.04,-215.05 111.55,-213.86 111.55,-209.5 111.55,-205.7 89.92,-204.3 67.19,-205.31"/>
<polygon fill="black" stroke="black" points="66.87,-201.83 57.1,-205.92 67.29,-208.81 66.87,-201.83"/>
<text text-anchor="middle" x="116.55" y="-205.8" font-family="Times,serif" font-size="14.00">d</text>
</g>
<!-- 0&#45;&gt;0 -->
<g id="edge42" class="edge">
<title>0&#45;&gt;0</title>
<path fill="none" stroke="black" d="M56.91,-213.7C90.07,-217.09 129.55,-215.68 129.55,-209.5 129.55,-203.94 97.68,-202.24 67.16,-204.41"/>
<polygon fill="black" stroke="black" points="66.57,-200.95 56.91,-205.29 67.17,-207.92 66.57,-200.95"/>
<text text-anchor="middle" x="134.05" y="-205.8" font-family="Times,serif" font-size="14.00">e</text>
</g>
<!-- 0&#45;&gt;0 -->
<g id="edge65" class="edge">
<title>0&#45;&gt;0</title>
<path fill="none" stroke="black" d="M56.7,-214.18C96.8,-219.12 147.55,-217.56 147.55,-209.5 147.55,-202.09 104.78,-200.17 66.75,-203.73"/>
<polygon fill="black" stroke="black" points="66.26,-200.26 56.7,-204.82 67.02,-207.22 66.26,-200.26"/>
<text text-anchor="middle" x="150.55" y="-205.8" font-family="Times,serif" font-size="14.00">f</text>
</g>
<!-- 2 -->
<g id="node27" class="node">
<title>2</title>
<ellipse fill="none" stroke="black" cx="30.55" cy="-122.5" rx="27" ry="18"/>
<text text-anchor="middle" x="30.55" y="-118.8" font-family="Times,serif" font-size="14.00">2</text>
</g>
<!-- 0&#45;&gt;2 -->
<g id="edge66" class="edge">
<title>0&#45;&gt;2</title>
<path fill="none" stroke="black" d="M30.55,-191.29C30.55,-179.66 30.55,-164.04 30.55,-150.73"/>
<polygon fill="black" stroke="black" points="34.05,-150.67 30.55,-140.67 27.05,-150.67 34.05,-150.67"/>
<text text-anchor="middle" x="35.55" y="-162.3" font-family="Times,serif" font-size="14.00">b</text>
</g>
<!-- 11 -->
<g id="node23" class="node">
<title>11</title>
<ellipse fill="none" stroke="black" cx="2664.55" cy="-291.24" rx="27" ry="18"/>
<text text-anchor="middle" x="2664.55" y="-287.54" font-family="Times,serif" font-size="14.00">11</text>
</g>
<!-- 26 -->
<g id="node24" class="node">
<title>26</title>
<ellipse fill="none" stroke="black" cx="2736.55" cy="-291.24" rx="22.96" ry="22.96"/>
<ellipse fill="none" stroke="black" cx="2736.55" cy="-291.24" rx="27" ry="27"/>
<text text-anchor="middle" x="2736.55" y="-287.54" font-family="Times,serif" font-size="14.00">26</text>
</g>
<!-- 26&#45;&gt;26 -->
<g id="edge13" class="edge">
<title>26&#45;&gt;26</title>
<path fill="none" stroke="black" d="M2763.64,-292.74C2773.36,-292.77 2781.3,-292.28 2781.3,-291.24 2781.3,-290.62 2778.35,-290.18 2773.85,-289.95"/>
<polygon fill="black" stroke="black" points="2773.7,-286.45 2763.64,-289.75 2773.56,-293.45 2773.7,-286.45"/>
<text text-anchor="middle" x="2786.3" y="-287.54" font-family="Times,serif" font-size="14.00">b</text>
</g>
<!-- 26&#45;&gt;26 -->
<g id="edge15" class="edge">
<title>26&#45;&gt;26</title>
<path fill="none" stroke="black" d="M2763.31,-293.97C2781.49,-294.76 2799.3,-293.85 2799.3,-291.24 2799.3,-289.12 2787.54,-288.13 2773.38,-288.25"/>
<polygon fill="black" stroke="black" points="2773.21,-284.76 2763.31,-288.52 2773.4,-291.76 2773.21,-284.76"/>
<text text-anchor="middle" x="2803.8" y="-287.54" font-family="Times,serif" font-size="14.00">e</text>
</g>
<!-- 26&#45;&gt;26 -->
<g id="edge17" class="edge">
<title>26&#45;&gt;26</title>
<path fill="none" stroke="black" d="M2763.43,-294.85C2789.18,-296.78 2817.3,-295.58 2817.3,-291.24 2817.3,-287.47 2795.96,-286.07 2773.44,-287.05"/>
<polygon fill="black" stroke="black" points="2773.21,-283.55 2763.43,-287.64 2773.62,-290.54 2773.21,-283.55"/>
<text text-anchor="middle" x="2820.3" y="-287.54" font-family="Times,serif" font-size="14.00">f</text>
</g>
<!-- 26&#45;&gt;26 -->
<g id="edge26" class="edge">
<title>26&#45;&gt;26</title>
<path fill="none" stroke="black" d="M2763.09,-295.48C2796.11,-298.83 2835.3,-297.42 2835.3,-291.24 2835.3,-285.7 2803.67,-284 2773.3,-286.14"/>
<polygon fill="black" stroke="black" points="2772.76,-282.67 2763.09,-287.01 2773.35,-289.65 2772.76,-282.67"/>
<text text-anchor="middle" x="2839.3" y="-287.54" font-family="Times,serif" font-size="14.00">c</text>
</g>
<!-- 26&#45;&gt;26 -->
<g id="edge40" class="edge">
<title>26&#45;&gt;26</title>
<path fill="none" stroke="black" d="M2762.93,-295.96C2802.9,-300.86 2853.3,-299.29 2853.3,-291.24 2853.3,-283.86 2810.83,-281.93 2772.95,-285.45"/>
<polygon fill="black" stroke="black" points="2772.5,-281.98 2762.93,-286.53 2773.25,-288.94 2772.5,-281.98"/>
<text text-anchor="middle" x="2857.8" y="-287.54" font-family="Times,serif" font-size="14.00">a</text>
</g>
<!-- 26&#45;&gt;26 -->
<g id="edge51" class="edge">
<title>26&#45;&gt;26</title>
<path fill="none" stroke="black" d="M2763,-296.37C2809.69,-302.89 2871.3,-301.18 2871.3,-291.24 2871.3,-282.01 2818.05,-279.88 2773.05,-284.87"/>
<polygon fill="black" stroke="black" points="2772.49,-281.41 2763,-286.12 2773.36,-288.35 2772.49,-281.41"/>
<text text-anchor="middle" x="2876.3" y="-287.54" font-family="Times,serif" font-size="14.00">d</text>
</g>
<!-- 9 -->
<g id="node25" class="node">
<title>9</title>
<ellipse fill="none" stroke="black" cx="2968.55" cy="-291.24" rx="27" ry="18"/>
<text text-anchor="middle" x="2968.55" y="-287.54" font-family="Times,serif" font-size="14.00">9</text>
</g>
<!-- 1 -->
<g id="node26" class="node">
<title>1</title>
<ellipse fill="none" stroke="black" cx="3040.55" cy="-291.24" rx="27" ry="18"/>
<text text-anchor="middle" x="3040.55" y="-287.54" font-family="Times,serif" font-size="14.00">1</text>
</g>
<!-- 2&#45;&gt;2 -->
<g id="edge9" class="edge">
<title>2&#45;&gt;2</title>
<path fill="none" stroke="black" d="M57.79,-124.07C67.57,-124.1 75.55,-123.58 75.55,-122.5 75.55,-121.84 72.59,-121.38 68.06,-121.14"/>
<polygon fill="black" stroke="black" points="67.86,-117.63 57.79,-120.92 67.71,-124.63 67.86,-117.63"/>
<text text-anchor="middle" x="80.55" y="-118.8" font-family="Times,serif" font-size="14.00">b</text>
</g>
<!-- 2&#45;&gt;2 -->
<g id="edge22" class="edge">
<title>2&#45;&gt;2</title>
<path fill="none" stroke="black" d="M57.42,-125.35C75.67,-126.19 93.55,-125.24 93.55,-122.5 93.55,-120.27 81.75,-119.22 67.53,-119.36"/>
<polygon fill="black" stroke="black" points="67.32,-115.86 57.42,-119.64 67.51,-122.86 67.32,-115.86"/>
<text text-anchor="middle" x="97.55" y="-118.8" font-family="Times,serif" font-size="14.00">c</text>
</g>
<!-- 2&#45;&gt;2 -->
<g id="edge23" class="edge">
<title>2&#45;&gt;2</title>
<path fill="none" stroke="black" d="M57.1,-126.25C83.04,-128.32 111.55,-127.07 111.55,-122.5 111.55,-118.51 89.92,-117.04 67.19,-118.1"/>
<polygon fill="black" stroke="black" points="66.86,-114.62 57.1,-118.74 67.3,-121.6 66.86,-114.62"/>
<text text-anchor="middle" x="116.05" y="-118.8" font-family="Times,serif" font-size="14.00">a</text>
</g>
<!-- 2&#45;&gt;2 -->
<g id="edge41" class="edge">
<title>2&#45;&gt;2</title>
<path fill="none" stroke="black" d="M56.91,-126.91C90.07,-130.46 129.55,-128.99 129.55,-122.5 129.55,-116.66 97.68,-114.88 67.16,-117.15"/>
<polygon fill="black" stroke="black" points="66.55,-113.69 56.91,-118.08 67.18,-120.67 66.55,-113.69"/>
<text text-anchor="middle" x="134.55" y="-118.8" font-family="Times,serif" font-size="14.00">d</text>
</g>
<!-- 2&#45;&gt;2 -->
<g id="edge67" class="edge">
<title>2&#45;&gt;2</title>
<path fill="none" stroke="black" d="M56.7,-127.41C96.8,-132.6 147.55,-130.97 147.55,-122.5 147.55,-114.72 104.78,-112.7 66.75,-116.44"/>
<polygon fill="black" stroke="black" points="66.24,-112.98 56.7,-117.58 67.03,-119.93 66.24,-112.98"/>
<text text-anchor="middle" x="152.05" y="-118.8" font-family="Times,serif" font-size="14.00">e</text>
</g>
<!-- 25 -->
<g id="node28" class="node">
<title>25</title>
<ellipse fill="none" stroke="black" cx="30.55" cy="-26.75" rx="22.96" ry="22.96"/>
<ellipse fill="none" stroke="black" cx="30.55" cy="-26.75" rx="27" ry="27"/>
<text text-anchor="middle" x="30.55" y="-23.05" font-family="Times,serif" font-size="14.00">25</text>
</g>
<!-- 2&#45;&gt;25 -->
<g id="edge24" class="edge">
<title>2&#45;&gt;25</title>
<path fill="none" stroke="black" d="M30.55,-104.3C30.55,-93.01 30.55,-77.82 30.55,-63.95"/>
<polygon fill="black" stroke="black" points="34.05,-63.68 30.55,-53.68 27.05,-63.68 34.05,-63.68"/>
<text text-anchor="middle" x="33.55" y="-75.3" font-family="Times,serif" font-size="14.00">f</text>
</g>
<!-- 25&#45;&gt;25 -->
<g id="edge11" class="edge">
<title>25&#45;&gt;25</title>
<path fill="none" stroke="black" d="M57.64,-28.37C67.36,-28.41 75.3,-27.87 75.3,-26.75 75.3,-26.07 72.35,-25.6 67.85,-25.35"/>
<polygon fill="black" stroke="black" points="67.71,-21.84 57.64,-25.12 67.56,-28.84 67.71,-21.84"/>
<text text-anchor="middle" x="79.8" y="-23.05" font-family="Times,serif" font-size="14.00">a</text>
</g>
<!-- 25&#45;&gt;25 -->
<g id="edge33" class="edge">
<title>25&#45;&gt;25</title>
<path fill="none" stroke="black" d="M57.31,-29.7C75.49,-30.56 93.3,-29.57 93.3,-26.75 93.3,-24.45 81.54,-23.37 67.38,-23.51"/>
<polygon fill="black" stroke="black" points="67.2,-20.01 57.31,-23.8 67.41,-27.01 67.2,-20.01"/>
<text text-anchor="middle" x="98.3" y="-23.05" font-family="Times,serif" font-size="14.00">d</text>
</g>
<!-- 25&#45;&gt;25 -->
<g id="edge53" class="edge">
<title>25&#45;&gt;25</title>
<path fill="none" stroke="black" d="M57.01,-30.62C82.88,-32.76 111.3,-31.47 111.3,-26.75 111.3,-22.63 89.73,-21.12 67.08,-22.22"/>
<polygon fill="black" stroke="black" points="66.76,-18.73 57.01,-22.87 67.22,-25.72 66.76,-18.73"/>
<text text-anchor="middle" x="115.8" y="-23.05" font-family="Times,serif" font-size="14.00">e</text>
</g>
<!-- 25&#45;&gt;25 -->
<g id="edge58" class="edge">
<title>25&#45;&gt;25</title>
<path fill="none" stroke="black" d="M57.09,-31.33C90.11,-34.96 129.3,-33.43 129.3,-26.75 129.3,-20.74 97.67,-18.9 67.3,-21.22"/>
<polygon fill="black" stroke="black" points="66.72,-17.76 57.09,-22.16 67.37,-24.73 66.72,-17.76"/>
<text text-anchor="middle" x="134.3" y="-23.05" font-family="Times,serif" font-size="14.00">b</text>
</g>
<!-- 25&#45;&gt;25 -->
<g id="edge63" class="edge">
<title>25&#45;&gt;25</title>
<path fill="none" stroke="black" d="M56.93,-31.86C96.9,-37.17 147.3,-35.47 147.3,-26.75 147.3,-18.75 104.83,-16.65 66.95,-20.47"/>
<polygon fill="black" stroke="black" points="66.46,-17.01 56.93,-21.64 67.27,-23.96 66.46,-17.01"/>
<text text-anchor="middle" x="151.3" y="-23.05" font-family="Times,serif" font-size="14.00">c</text>
</g>
<!-- 25&#45;&gt;25 -->
<g id="edge64" class="edge">
<title>25&#45;&gt;25</title>
<path fill="none" stroke="black" d="M57,-32.3C103.69,-39.36 165.3,-37.51 165.3,-26.75 165.3,-16.74 112.05,-14.44 67.05,-19.84"/>
<polygon fill="black" stroke="black" points="66.44,-16.39 57,-21.2 67.38,-23.33 66.44,-16.39"/>
<text text-anchor="middle" x="168.3" y="-23.05" font-family="Times,serif" font-size="14.00">f</text>
</g>
</g>
</svg>
